<svg width="25" height="24" viewBox="0 0 25 24" fill="none" xmlns="http://www.w3.org/2000/svg">
<g clip-path="url(#clip0_491_9051)">
<path d="M5.25 17C5.25 17.5304 5.46071 18.0391 5.83579 18.4142C6.21086 18.7893 6.71957 19 7.25 19C7.78043 19 8.28914 18.7893 8.66421 18.4142C9.03929 18.0391 9.25 17.5304 9.25 17C9.25 16.4696 9.03929 15.9609 8.66421 15.5858C8.28914 15.2107 7.78043 15 7.25 15C6.71957 15 6.21086 15.2107 5.83579 15.5858C5.46071 15.9609 5.25 16.4696 5.25 17Z" stroke="#6B6B6B" stroke-width="1.2" stroke-linecap="round" stroke-linejoin="round"/>
<path d="M15.25 17C15.25 17.5304 15.4607 18.0391 15.8358 18.4142C16.2109 18.7893 16.7196 19 17.25 19C17.7804 19 18.2891 18.7893 18.6642 18.4142C19.0393 18.0391 19.25 17.5304 19.25 17C19.25 16.4696 19.0393 15.9609 18.6642 15.5858C18.2891 15.2107 17.7804 15 17.25 15C16.7196 15 16.2109 15.2107 15.8358 15.5858C15.4607 15.9609 15.25 16.4696 15.25 17Z" stroke="#6B6B6B" stroke-width="1.2" stroke-linecap="round" stroke-linejoin="round"/>
<path d="M5.25 17H3.25V6C3.25 5.73478 3.35536 5.48043 3.54289 5.29289C3.73043 5.10536 3.98478 5 4.25 5H13.25V17M9.25 17H15.25M19.25 17H21.25V11M21.25 11H13.25M21.25 11L18.25 6H13.25" stroke="#6B6B6B" stroke-width="1.5" stroke-linecap="round" stroke-linejoin="round"/>
</g>
<defs>
<clipPath id="clip0_491_9051">
<rect width="24" height="24" fill="white" transform="translate(0.25)"/>
</clipPath>
</defs>
</svg>
